<svg version="1.1" id="Layer_1" xmlns="http://www.w3.org/2000/svg" xmlns:xlink="http://www.w3.org/1999/xlink" x="0px" y="0px"
	 width="100%" viewBox="0 0 992 992" enable-background="new 0 0 992 992" xml:space="preserve">
<path fill="#000000" opacity="1.000000" stroke="none" 
	d="
M742.230225,713.238586 
	C784.038513,665.219727 809.801636,610.225037 819.393738,547.506409 
	C816.175232,546.793091 814.963318,548.452759 813.570435,549.478210 
	C786.331787,569.532654 759.149597,589.663818 731.895996,609.697815 
	C719.512207,618.801147 703.678467,614.169678 699.423950,600.341431 
	C696.816101,591.865173 699.624817,583.314514 707.114746,577.799927 
	C735.159485,557.151794 763.257751,536.576599 791.327332,515.962219 
	C801.534424,508.466034 811.708618,500.924988 821.918518,493.432587 
	C823.956726,491.936859 825.578979,490.080811 827.211609,488.172424 
	C834.254761,479.939941 844.830322,478.632629 854.293823,483.963806 
	C861.940735,488.271637 867.434814,494.395325 872.529419,501.348938 
	C900.105347,538.987183 927.884155,576.476746 955.607117,614.007202 
	C959.376709,619.110352 962.176208,624.589844 960.957520,631.122070 
	C959.353638,639.719055 954.534973,645.641296 945.704102,647.670898 
	C937.154724,649.635742 930.135254,646.848328 924.970764,640.026978 
	C915.114502,627.008362 905.540588,613.776001 895.842224,600.637756 
	C884.956421,585.890869 874.071045,571.143616 863.155823,556.418518 
	C862.296875,555.259766 861.682495,553.781616 859.684875,553.248352 
	C857.461243,558.120972 857.442078,563.506226 856.457520,568.605042 
	C845.589539,624.885803 822.846802,675.866394 787.752502,721.129517 
	C742.874878,779.010864 685.749451,820.172913 616.471252,844.131470 
	C590.138245,853.238342 562.985901,858.767456 535.200378,861.439453 
	C462.601562,868.420898 393.989197,854.904297 329.500214,821.170105 
	C297.884186,804.631775 269.376282,783.531677 244.141251,758.177063 
	C235.966293,749.963440 235.343521,737.873169 242.606781,729.831543 
	C249.993088,721.653687 262.635040,720.885620 271.275574,729.031250 
	C288.419891,745.193604 306.383575,760.256897 326.260345,772.952881 
	C364.687683,797.497742 406.456299,813.029907 451.561981,819.871460 
	C467.752625,822.327271 484.043213,823.515930 500.303772,823.487061 
	C544.408630,823.408752 586.865540,814.606323 627.362854,796.934875 
	C671.714050,777.581726 710.081665,749.967712 742.230225,713.238586 
z"/>
<path fill="#000000" opacity="1.000000" stroke="none" 
	d="
M753.773987,241.313416 
	C761.360535,251.403854 760.794189,262.034576 752.537170,269.367065 
	C744.097839,276.861450 733.079712,276.525055 724.234863,268.138947 
	C692.284851,237.845978 655.984558,214.380936 614.844421,198.634506 
	C587.835693,188.296890 559.859375,182.052231 531.032043,179.184402 
	C475.131622,173.623230 421.365051,181.955933 370.239838,204.813995 
	C292.374603,239.627533 236.289841,296.479523 202.039062,374.738464 
	C190.898544,400.193176 183.945770,426.803772 179.500793,454.140961 
	C179.341354,455.121552 179.334930,456.133514 179.332047,457.131073 
	C179.329697,457.939178 179.440048,458.747620 179.502426,459.583008 
	C181.847641,459.965210 183.008560,458.273743 184.398193,457.250519 
	C213.246201,436.010132 242.030548,414.683228 270.904205,393.477875 
	C281.944092,385.369995 296.152344,388.631378 301.854980,400.347504 
	C306.207916,409.290619 303.511383,419.456207 294.745514,425.959351 
	C277.215973,438.964020 259.586334,451.833832 241.994537,464.754547 
	C219.703537,481.126801 197.528351,497.660156 175.075027,513.806763 
	C159.554306,524.967957 144.363846,521.968567 133.094116,506.594574 
	C104.722977,467.891022 76.182137,429.311890 47.724541,390.671661 
	C44.962563,386.921387 42.200684,383.210999 41.570942,378.314270 
	C40.371716,368.989441 44.778603,360.481110 52.882946,356.969696 
	C61.615303,353.186249 71.819122,355.825134 77.515251,363.526093 
	C94.063354,385.898590 110.546616,408.319031 127.061096,430.716400 
	C130.990265,436.045197 134.941956,441.357391 139.656006,447.720215 
	C141.098557,440.412567 142.260666,434.321503 143.506104,428.247528 
	C158.757889,353.864532 194.200531,290.637878 248.952301,238.214417 
	C299.072693,190.225403 358.421631,159.498947 426.166687,145.111069 
	C452.923706,139.428329 480.123352,137.212631 507.509674,137.880249 
	C565.063171,139.283249 619.372375,153.396759 670.314026,180.110062 
	C701.059937,196.232895 728.446045,217.108688 753.773987,241.313416 
z"/>
</svg>